<?xml version="1.0" standalone="no"?>
<!DOCTYPE svg PUBLIC "-//W3C//DTD SVG 20010904//EN"
 "http://www.w3.org/TR/2001/REC-SVG-20010904/DTD/svg10.dtd">
<svg version="1.0" xmlns="http://www.w3.org/2000/svg"
 width="673.000000pt" height="64.000000pt" viewBox="0 0 673.000000 64.000000"
 preserveAspectRatio="xMidYMid meet">

<g transform="translate(0.000000,64.000000) scale(0.100000,-0.100000)"
fill="#000000" stroke="none">
<path d="M338 482 c-20 -9 -46 -29 -58 -44 -26 -34 -95 -267 -82 -280 5 -5 53
-7 107 -6 110 3 99 -5 125 96 l11 42 138 0 139 0 4 25 5 25 -133 0 c-93 0
-134 3 -134 11 0 7 9 26 20 44 19 31 25 33 94 40 41 3 100 3 130 0 78 -10 103
-2 108 35 l5 30 -221 0 c-188 0 -227 -3 -258 -18z"/>
<path d="M913 490 c-34 -14 -89 -97 -107 -162 -22 -78 -20 -102 8 -135 l24
-28 243 -3 c134 -2 254 0 266 3 68 17 118 102 130 222 5 56 4 63 -20 87 l-26
26 -248 -1 c-136 0 -258 -4 -270 -9z m357 -62 c0 -21 -33 -142 -52 -190 -10
-28 -11 -28 -109 -28 -56 0 -101 4 -104 10 -8 12 42 174 63 207 11 18 25 23
70 25 98 5 132 -1 132 -24z"/>
<path d="M1552 448 c-6 -29 -23 -102 -37 -162 -14 -60 -25 -115 -25 -123 0
-11 18 -13 92 -11 l92 3 23 90 c12 50 28 113 34 140 6 28 16 56 21 63 11 13
172 18 202 6 22 -8 22 -70 0 -78 -9 -3 -39 -6 -69 -6 -74 0 -77 -21 -17 -103
26 -35 54 -73 62 -85 14 -22 21 -23 118 -20 l102 3 -50 62 c-27 34 -50 68 -50
76 0 8 18 19 39 26 52 15 81 52 81 104 0 66 1 66 -320 67 l-286 0 -12 -52z"/>
<path d="M2236 478 c-3 -13 -6 -26 -6 -30 0 -5 60 -8 134 -8 74 0 137 -4 140
-9 8 -12 -19 -36 -169 -146 -79 -58 -130 -102 -130 -113 0 -16 22 -17 280 -17
l280 0 3 33 3 32 -125 0 c-139 0 -152 7 -95 51 125 95 255 203 257 215 3 12
-43 14 -281 14 l-285 0 -6 -22z"/>
<path d="M2862 341 c-23 -87 -42 -166 -42 -175 0 -14 13 -16 89 -16 59 0 92 4
97 12 4 6 13 37 19 67 l11 56 92 3 c51 1 92 -1 92 -5 0 -4 -7 -33 -15 -63 -8
-30 -12 -57 -9 -59 8 -8 188 -1 196 8 11 10 58 225 58 265 0 66 -2 66 -289 66
l-258 0 -41 -159z m397 103 c2 -2 0 -23 -5 -46 l-9 -43 -93 -3 -93 -3 6 38
c10 60 12 62 52 65 38 4 135 -2 142 -8z"/>
<path d="M3806 478 c-40 -146 -75 -313 -68 -320 5 -5 49 -8 98 -6 l89 3 35
142 c20 78 38 144 40 147 10 9 136 14 150 6 13 -8 10 -28 -19 -142 -19 -73
-36 -139 -39 -146 -3 -10 8 -12 48 -10 l53 3 24 90 c13 50 28 115 34 147 12
62 20 68 94 68 69 0 85 -8 85 -44 -1 -17 -16 -82 -34 -144 -24 -81 -30 -115
-21 -118 6 -3 51 -4 100 -2 l89 3 8 30 c65 236 70 271 40 298 -17 15 -60 17
-409 17 l-391 0 -6 -22z"/>
<path d="M4662 333 c-23 -93 -42 -171 -42 -176 0 -4 91 -6 203 -5 201 3 202 3
205 26 3 22 3 22 -133 22 l-136 0 7 38 c3 20 10 41 15 46 4 5 55 10 113 12
111 2 126 6 126 30 0 18 12 15 -109 20 -57 2 -105 5 -107 7 -2 1 3 23 10 47
l13 45 139 5 c135 5 139 6 142 28 l3 22 -203 0 -204 0 -42 -167z"/>
<path d="M5157 481 c-7 -27 0 -31 45 -31 21 0 38 -1 38 -3 0 -2 -16 -64 -35
-138 -19 -74 -35 -140 -35 -147 0 -10 23 -12 98 -10 l97 3 36 143 c20 78 39
145 42 148 2 3 40 6 83 7 74 2 79 4 82 25 l3 22 -224 0 c-214 0 -225 -1 -230
-19z"/>
<path d="M5661 468 c-10 -34 -64 -242 -75 -291 l-7 -28 98 3 97 3 9 45 c17 99
6 90 113 90 86 0 95 -2 90 -17 -2 -10 -10 -37 -17 -61 -7 -25 -9 -46 -3 -50 5
-4 50 -6 100 -4 l92 3 28 117 c32 136 35 190 8 209 -14 10 -76 13 -270 13
l-252 0 -11 -32z m362 -25 c2 -5 0 -27 -5 -50 l-9 -43 -91 0 -91 0 7 42 c4 22
9 45 12 50 6 10 171 11 177 1z"/>
<path d="M6251 337 c-22 -89 -41 -168 -41 -175 0 -9 52 -12 214 -12 203 0 214
1 219 19 3 11 2 22 -1 25 -3 3 -54 6 -114 6 -59 0 -108 3 -108 8 0 4 16 68 34
142 18 74 31 138 29 143 -2 4 -46 7 -97 7 l-93 0 -42 -163z"/>
</g>
</svg>
